# xmcd
#
# Track frame offsets:
#	182
#	20487
#	35817
#	57932
#	73185
#	86052
#	103762
#	118122
#	136635
#	150825
#
# Disc length: 2185 seconds
#
# Revision: 0
# Processed by: cddbd v1.5.2PL0 Copyright (c) Steve Scherf et al.
# Submitted via: EasyCDDAExtractor 11.0.2.1
#
DISCID=8208870a
DTITLE=Lissette - Martes 2 De La Tarde
DYEAR=1973
DGENRE=Latin
TTITLE0=Si Tu Supieras... Por Si Acaso
TTITLE1=Por Si Tu Quieres Saber
TTITLE2=Matandome Suavemente
TTITLE3=Los Dos A Puerta Cerrada
TTITLE4=Atrapados En El Amor
TTITLE5=Martes 2 De La Tarde
TTITLE6=Gente Que Viene Gente Que Va
TTITLE7=Gracias A La Vida
TTITLE8=Tantas Veces Me Pregunto
TTITLE9=Ves, Estamos Juntos
EXTD=
EXTT0=
EXTT1=
EXTT2=
EXTT3=
EXTT4=
EXTT5=
EXTT6=
EXTT7=
EXTT8=
EXTT9=
PLAYORDER=
